<?xml version="1.0" standalone="no"?>
<!DOCTYPE svg PUBLIC "-//W3C//DTD SVG 20010904//EN"
 "http://www.w3.org/TR/2001/REC-SVG-20010904/DTD/svg10.dtd">
<svg version="1.0" xmlns="http://www.w3.org/2000/svg"
 width="700.000000pt" height="700.000000pt" viewBox="0 0 700.000000 700.000000"
 preserveAspectRatio="xMidYMid meet">
<metadata>
Created by potrace 1.14, written by Peter Selinger 2001-2017
</metadata>
<g transform="translate(0.000000,700.000000) scale(0.100000,-0.100000)"
fill="#000000" stroke="none">
<path d="M0 3500 l0 -3500 3500 0 3500 0 0 3500 0 3500 -3500 0 -3500 0 0
-3500z m3571 2260 c30 -6 81 -23 114 -39 109 -51 1829 -1013 1881 -1051 60
-45 113 -114 151 -196 21 -45 28 -79 31 -144 5 -112 -19 -178 -93 -258 l-53
-58 116 -66 c179 -102 261 -196 298 -339 24 -92 15 -175 -27 -256 -30 -57
-144 -172 -1039 -1049 -933 -914 -1010 -987 -1075 -1019 -122 -60 -267 -66
-392 -16 -43 17 -175 87 -242 129 -119 73 -1997 1324 -2033 1354 -177 146
-275 421 -223 623 37 141 -5 97 1114 1174 1292 1243 1198 1154 1249 1180 73
37 140 47 223 31z"/>
<path d="M3674 5148 c-37 -22 -785 -751 -800 -780 -43 -84 35 -199 136 -198
19 1 45 6 56 13 12 7 195 180 408 386 429 416 424 410 392 496 -10 25 -31 54
-48 66 -36 26 -114 35 -144 17z"/>
<path d="M3923 4550 c-33 -14 -511 -480 -524 -512 -14 -33 -6 -90 16 -125 26
-39 75 -63 129 -63 48 0 50 1 150 97 288 277 407 400 417 430 33 102 -87 213
-188 173z"/>
<path d="M2575 4049 c-39 -12 -845 -788 -863 -831 -18 -42 -7 -98 26 -136 15
-17 274 -189 575 -382 578 -371 592 -379 653 -347 16 8 214 202 441 429 444
448 440 442 414 521 -15 45 -48 75 -151 136 -101 61 -149 67 -199 26 -57 -49
-62 -123 -11 -188 l19 -23 -304 -304 c-297 -297 -304 -303 -327 -288 -480 308
-784 503 -788 506 -5 4 458 460 547 538 l52 45 42 -22 c131 -67 247 78 152
191 -30 36 -177 126 -218 133 -16 3 -43 1 -60 -4z"/>
<path d="M4058 3842 c-32 -4 -113 -73 -134 -115 -19 -36 -14 -95 11 -133 37
-57 124 -81 183 -50 31 16 84 71 101 103 47 93 -48 209 -161 195z"/>
</g>
</svg>
