<?xml version="1.0" standalone="no"?>
<!DOCTYPE svg PUBLIC "-//W3C//DTD SVG 20010904//EN"
 "http://www.w3.org/TR/2001/REC-SVG-20010904/DTD/svg10.dtd">
<svg version="1.0" xmlns="http://www.w3.org/2000/svg"
 width="700.000000pt" height="700.000000pt" viewBox="0 0 700.000000 700.000000"
 preserveAspectRatio="xMidYMid meet">
<metadata>
Created by potrace 1.14, written by Peter Selinger 2001-2017
</metadata>
<g transform="translate(0.000000,700.000000) scale(0.100000,-0.100000)"
fill="#000000" stroke="none">
<path d="M0 3500 l0 -3500 3500 0 3500 0 0 3500 0 3500 -3500 0 -3500 0 0
-3500z m3706 2348 c65 -26 1513 -818 1601 -876 109 -70 169 -212 144 -336 -20
-98 -60 -152 -218 -293 -78 -70 -143 -130 -143 -133 0 -5 627 -406 725 -463
121 -71 218 -203 246 -336 25 -119 -4 -267 -73 -373 -22 -35 -309 -306 -902
-852 -478 -441 -898 -824 -933 -852 -78 -62 -202 -125 -308 -156 -68 -20 -103
-23 -235 -23 -132 0 -167 3 -234 23 -84 24 -194 76 -261 122 -22 15 -431 283
-909 596 -479 313 -903 595 -943 627 -418 334 -466 982 -101 1373 32 34 512
472 1068 975 674 610 1029 925 1068 946 86 48 152 64 257 59 67 -2 106 -10
151 -28z"/>
<path d="M3499 5387 c-19 -12 -219 -188 -442 -391 -440 -398 -438 -397 -422
-482 9 -51 68 -110 119 -120 70 -13 105 12 468 341 462 417 486 440 498 487
35 127 -109 235 -221 165z"/>
<path d="M3685 4746 c-27 -12 -446 -386 -503 -448 -68 -74 -25 -208 76 -239
75 -22 98 -8 358 227 131 119 247 229 257 245 38 59 17 156 -44 202 -34 25
-105 31 -144 13z"/>
<path d="M2253 4249 c-19 -5 -135 -102 -300 -252 -148 -133 -326 -294 -396
-357 -70 -63 -134 -130 -143 -149 -19 -40 -15 -105 10 -143 20 -31 1051 -705
1108 -725 75 -26 93 -14 380 244 519 467 518 466 518 540 0 54 -29 95 -112
156 -116 86 -124 89 -179 89 -118 0 -189 -130 -125 -225 l25 -36 -236 -213
c-129 -117 -238 -214 -242 -216 -12 -4 -746 477 -746 490 0 6 111 112 247 235
l247 223 47 -30 c53 -33 96 -38 147 -16 69 29 106 104 86 178 -11 41 -58 87
-165 160 -73 50 -119 63 -171 47z"/>
<path d="M3799 4073 c-46 -31 -119 -103 -140 -136 -38 -63 -15 -151 51 -195
29 -20 45 -23 92 -20 52 4 63 9 115 55 83 72 103 105 103 170 0 49 -4 58 -39
95 -35 38 -43 42 -97 45 -45 3 -65 0 -85 -14z"/>
<path d="M4070 3290 c-443 -401 -830 -756 -860 -788 -206 -220 -244 -550 -94
-820 42 -75 87 -121 166 -173 196 -126 474 -122 668 10 56 38 1103 992 1674
1526 154 144 175 176 176 268 0 97 -52 178 -137 214 -53 22 -151 17 -199 -11
-23 -13 -342 -295 -709 -627 -367 -332 -681 -612 -697 -623 -58 -37 -146 -16
-182 44 -18 32 -21 101 -6 131 11 20 1334 1221 1403 1273 21 16 34 33 30 37
-13 12 -402 259 -416 264 -6 2 -374 -324 -817 -725z"/>
</g>
</svg>
