<?xml version="1.0" encoding="UTF-8"?>
<svg id="Layer_1" xmlns="http://www.w3.org/2000/svg" version="1.1" viewBox="0 0 855.7 124.1">
  <!-- Generator: Adobe Illustrator 29.1.0, SVG Export Plug-In . SVG Version: 2.1.0 Build 142)  -->
  <defs>
    <style>
      .st0 {
        fill: #f4f4f4;
      }

      .st1 {
        fill: #734099;
      }

      .st2 {
        fill: #875ca6;
      }

      .st3 {
        display: none;
      }
    </style>
  </defs>
  <g id="Layer_2" class="st3">
    <rect class="st1" x="-.4" y="-.2" width="855.7" height="124.1"/>
  </g>
  <g id="Layer_11" data-name="Layer_1">
    <g>
      <path class="st0" d="M12.6,71.4V15.4H2.4V5.3h33.8v10h-10v56.1h-13.5Z"/>
      <path class="st0" d="M42.3,71.4V5.3h13.5v27.2h11.7V5.3h13.5v66.1h-13.5v-29.3h-11.7v29.3h-13.5Z"/>
      <path class="st0" d="M91.1,71.4V5.3h28.8v9.3h-15.3v17.5h11.8v9.4h-11.8v20.7h15.5v9.1h-29Z"/>
      <path class="st2" d="M182.3,120c-8.4,0-15.1-1.6-19.9-4.8-4.9-3.2-8.3-7.6-10.3-13.2-2-5.7-2.9-12.2-2.9-19.7v-40.7c0-7.8,1-14.6,2.9-20.2s5.4-10,10.3-13.1,11.6-4.6,19.9-4.6,14.5,1.3,19.1,4.1c4.6,2.7,7.9,6.5,9.8,11.5,1.9,4.9,2.9,10.7,2.9,17.2v9.5h-22.4v-10.6c0-2.6-.1-5.1-.4-7.4-.3-2.3-1.1-4.1-2.3-5.6s-3.4-2.2-6.5-2.2-5.3.8-6.7,2.2-2.3,3.4-2.7,5.8c-.4,2.4-.6,5-.6,7.9v51.5c0,3.2.3,5.9.8,8.3.5,2.4,1.5,4.2,2.9,5.5s3.5,1.9,6.2,1.9,5.1-.7,6.4-2.2,2.1-3.4,2.4-5.8.5-5,.5-7.7v-11.1h22.4v9.4c0,6.6-.9,12.5-2.8,17.6-1.9,5.1-5.1,9.1-9.7,12s-11,4.4-19.3,4.4Z"/>
      <path class="st2" d="M228.2,118.5V5.1h49.4v16h-26.3v30.1h20.3v16.1h-20.3v35.6h26.6v15.7s-49.7,0-49.7,0Z"/>
      <path class="st2" d="M289.6,118.5V5.1h16.1l25.2,59.1V5.1h19v113.4h-15.4l-25.2-62.7v62.7h-19.7Z"/>
      <path class="st2" d="M377.8,118.5V22.3h-17.5V5.1h58v17.2h-17.2v96.2h-23.2Z"/>
      <path class="st2" d="M428.5,118.5V5.1h49.4v16h-26.3v30.1h20.3v16.1h-20.3v35.6h26.6v15.7s-49.7,0-49.7,0Z"/>
      <path class="st2" d="M489.8,118.5V5.1h29.4c7.7,0,14.2.9,19.7,2.6,5.5,1.7,9.7,4.8,12.6,9.2,2.9,4.4,4.4,10.5,4.4,18.2s-.4,8.8-1.2,12.4-2.2,6.7-4.2,9.4-4.8,4.8-8.5,6.4l15.7,55.3h-23.7l-13-51.4h-8.1v51.4h-23.1ZM512.9,53.4h6.7c3.7,0,6.7-.6,8.8-1.8s3.7-3.1,4.5-5.5c.9-2.5,1.3-5.5,1.3-9.2,0-5.2-1-9.2-2.9-12s-5.5-4.1-10.7-4.1h-7.8v32.6h0Z"/>
      <path class="st0" d="M606.4,118.5V5.1h47.9v15.7h-24.8v30.7h21v16.1h-21v51h-23.1Z"/>
      <path class="st0" d="M665.9,118.5V5.1h49.4v16h-26.3v30.1h20.3v16.1h-20.3v35.6h26.6v15.7s-49.7,0-49.7,0Z"/>
      <path class="st0" d="M726.2,118.5V5.1h49.4v16h-26.3v30.1h20.3v16.1h-20.3v35.6h26.6v15.7s-49.7,0-49.7,0Z"/>
      <path class="st0" d="M787.5,118.5V5.1h27.7c9.6,0,17.1,1.2,22.5,3.7,5.4,2.5,9.2,6.4,11.4,11.6s3.4,12,3.4,20.2v41.3c0,8.4-1.1,15.3-3.4,20.7-2.2,5.4-6,9.4-11.3,12s-12.6,3.8-22,3.8h-28.3ZM810.6,102.4h4.9c4.3,0,7.3-.7,9.2-2s3-3.4,3.4-6c.5-2.7.7-5.9.7-9.9v-46.8c0-3.9-.3-7.1-.9-9.5s-1.8-4.1-3.6-5.2-4.8-1.7-8.9-1.7h-4.8v81.1Z"/>
    </g>
  </g>
</svg>