<?xml version="1.0" encoding="utf-8"?>
<!-- Generator: Adobe Illustrator 26.2.1, SVG Export Plug-In . SVG Version: 6.00 Build 0)  -->
<svg version="1.1" xmlns="http://www.w3.org/2000/svg" xmlns:xlink="http://www.w3.org/1999/xlink" x="0px" y="0px"
	 viewBox="0 0 855.68 124.08" style="enable-background:new 0 0 855.68 124.08;" xml:space="preserve">
<style type="text/css">
	.st0{display:none;}
	.st1{display:inline;fill:#734099;}
	.st2{fill:#734099;}
</style>
<g id="Layer_2" class="st0">
	<rect x="-0.4" y="-0.24" class="st1" width="855.68" height="124.08"/>
</g>
<g id="Layer_1">
	<g>
		<path d="M12.6,71.42V15.35H2.4V5.31h33.79v10.04H26.15v56.07H12.6z"/>
		<path d="M42.31,71.42V5.31h13.47v27.18h11.67V5.31h13.47v66.11H67.45v-29.3H55.78v29.3H42.31z"/>
		<path d="M91.12,71.42V5.31h28.81v9.3h-15.34v17.55h11.83v9.39h-11.83v20.73h15.51v9.14H91.12z"/>
		<path class="st2" d="M182.33,119.97c-8.4,0-15.05-1.59-19.95-4.76c-4.9-3.17-8.33-7.58-10.29-13.23
			c-1.96-5.65-2.94-12.2-2.94-19.67V41.57c0-7.84,0.98-14.58,2.94-20.23c1.96-5.65,5.39-10.01,10.29-13.09
			c4.9-3.08,11.55-4.62,19.95-4.62c8.12,0,14.49,1.35,19.11,4.06c4.62,2.71,7.89,6.53,9.8,11.48c1.91,4.95,2.87,10.69,2.87,17.22
			v9.52h-22.4V35.27c0-2.61-0.14-5.06-0.42-7.35c-0.28-2.29-1.05-4.15-2.31-5.6c-1.26-1.45-3.43-2.17-6.51-2.17
			c-3.08,0-5.32,0.75-6.72,2.24c-1.4,1.49-2.29,3.43-2.66,5.81c-0.37,2.38-0.56,5.02-0.56,7.91v51.52c0,3.17,0.26,5.95,0.77,8.33
			c0.51,2.38,1.49,4.2,2.94,5.46c1.45,1.26,3.52,1.89,6.23,1.89c2.99,0,5.11-0.72,6.37-2.17c1.26-1.45,2.05-3.38,2.38-5.81
			c0.33-2.43,0.49-4.99,0.49-7.7V76.57h22.4v9.38c0,6.63-0.93,12.48-2.8,17.57c-1.87,5.09-5.09,9.1-9.66,12.04
			C197.08,118.5,190.64,119.97,182.33,119.97z"/>
		<path class="st2" d="M228.25,118.5V5.1h49.42v15.96h-26.32v30.1h20.3v16.1h-20.3v35.56h26.6v15.68H228.25z"/>
		<path class="st2" d="M289.57,118.5V5.1h16.1l25.2,59.08V5.1h19.04v113.4h-15.4l-25.2-62.72v62.72H289.57z"/>
		<path class="st2" d="M377.77,118.5V22.32h-17.5V5.1h57.96v17.22h-17.22v96.18H377.77z"/>
		<path class="st2" d="M428.45,118.5V5.1h49.42v15.96h-26.32v30.1h20.3v16.1h-20.3v35.56h26.6v15.68H428.45z"/>
		<path class="st2" d="M489.77,118.5V5.1h29.4c7.65,0,14.21,0.86,19.67,2.59c5.46,1.73,9.66,4.78,12.6,9.17
			c2.94,4.39,4.41,10.45,4.41,18.2c0,4.67-0.4,8.8-1.19,12.39c-0.79,3.59-2.19,6.72-4.2,9.38c-2.01,2.66-4.83,4.78-8.47,6.37
			l15.68,55.3h-23.66l-13.02-51.38h-8.12v51.38H489.77z M512.87,53.4h6.72c3.73,0,6.67-0.61,8.82-1.82
			c2.15-1.21,3.66-3.06,4.55-5.53c0.89-2.47,1.33-5.53,1.33-9.17c0-5.23-0.96-9.22-2.87-11.97c-1.91-2.75-5.48-4.13-10.71-4.13
			h-7.84V53.4z"/>
		<path d="M606.38,118.5V5.1h47.88v15.68h-24.78v30.66h21v16.1h-21v50.96H606.38z"/>
		<path d="M665.88,118.5V5.1h49.42v15.96h-26.32v30.1h20.3v16.1h-20.3v35.56h26.6v15.68H665.88z"/>
		<path d="M726.2,118.5V5.1h49.42v15.96H749.3v30.1h20.3v16.1h-20.3v35.56h26.6v15.68H726.2z"/>
		<path d="M787.52,118.5V5.1h27.72c9.61,0,17.1,1.24,22.47,3.71c5.37,2.47,9.17,6.35,11.41,11.62c2.24,5.27,3.36,12.02,3.36,20.23
			v41.3c0,8.4-1.12,15.31-3.36,20.72c-2.24,5.41-6,9.4-11.27,11.97c-5.27,2.57-12.62,3.85-22.05,3.85H787.52z M810.62,102.4h4.9
			c4.29,0,7.35-0.68,9.17-2.03c1.82-1.35,2.96-3.36,3.43-6.02c0.47-2.66,0.7-5.95,0.7-9.87V37.72c0-3.92-0.3-7.07-0.91-9.45
			c-0.61-2.38-1.82-4.13-3.64-5.25s-4.78-1.68-8.89-1.68h-4.76V102.4z"/>
	</g>
</g>
</svg>
